<svg width="128" height="29" viewBox="0 0 128 29" fill="none" xmlns="http://www.w3.org/2000/svg">
<path d="M0.174837 22.0677L0 21.1363C0.427379 20.8258 0.883897 20.5444 1.36956 20.2922C1.85521 20.0399 2.3603 19.8071 2.88481 19.5936L2.91395 22.0677H0.174837ZM4.60404 22.0677L4.69146 19.7101L8.7127 20.6997L8.68356 22.0677H4.60404ZM17.1632 22.0677L16.9883 21.1363C17.4157 20.8258 17.8722 20.5444 18.3579 20.2922C18.8435 20.0399 19.3486 19.8071 19.8731 19.5936L19.9023 22.0677H17.1632ZM23.0785 22.0677L23.1659 19.7101L27.1871 20.6997L27.158 22.0677H23.0785ZM2.50599 22.0677L2.97223 3.14847H9.12066L5.74048 6.35018L6.32327 13.2484L6.20671 22.0677H2.50599ZM10.9856 22.2714L4.54576 4.45826L9.09152 3.14847L14.5989 18.5749L14.7154 21.602L10.9856 22.2714ZM14.7154 21.602L12.4134 21.0198L19.0864 3.14847L21.301 4.22541L14.7154 21.602ZM19.4943 22.0677L19.4069 13.2484L19.9605 6.20465L19.0864 3.14847H24.244L24.5354 22.0677H19.4943ZM4.48748 5.5061L0.466232 4.51647L0.495371 3.14847H4.5749L4.48748 5.5061ZM23.8944 5.62252L23.8652 3.14847H26.6043L26.7792 4.07988C26.3712 4.35154 25.9244 4.6135 25.4388 4.86575C24.9531 5.11801 24.4383 5.37026 23.8944 5.62252Z" fill="black"/>
<path d="M32.8777 22.6498C31.5956 22.6498 30.3912 22.349 29.2645 21.7475C28.1377 21.146 27.215 20.2728 26.4962 19.1279C25.7969 17.9831 25.4472 16.6054 25.4472 14.9948C25.4472 13.3842 25.7871 12.0259 26.4671 10.9199C27.1664 9.81385 28.0697 8.96976 29.177 8.38764C30.3038 7.80551 31.4985 7.51444 32.7612 7.51444C34.0239 7.51444 35.2089 7.80551 36.3162 8.38764C37.4235 8.96976 38.3171 9.83326 38.997 10.9781C39.677 12.1036 40.0169 13.491 40.0169 15.1403C40.0169 16.7509 39.6867 18.1189 39.0262 19.2444C38.3657 20.3504 37.4915 21.1945 36.4036 21.7766C35.3352 22.3587 34.1599 22.6498 32.8777 22.6498ZM33.0234 20.0302C33.276 20.0302 33.548 19.9817 33.8394 19.8847C34.1113 19.6712 34.325 19.3414 34.4804 18.8951C34.6358 18.4488 34.7427 17.9249 34.801 17.3233C34.8787 16.7218 34.9175 16.1009 34.9175 15.4605C34.9175 14.5097 34.8398 13.6559 34.6844 12.8991C34.529 12.123 34.2764 11.502 33.9268 11.0363C33.5965 10.5512 33.14 10.3087 32.5572 10.3087C32.3435 10.3087 32.1298 10.3378 31.9161 10.396C31.7219 10.4542 31.5568 10.5318 31.4208 10.6288C31.1294 11.0363 30.906 11.6379 30.7506 12.4334C30.6146 13.2096 30.5466 14.0828 30.5466 15.053C30.5466 15.965 30.634 16.7994 30.8088 17.5562C30.9837 18.3129 31.2459 18.9145 31.5956 19.3608C31.9647 19.8071 32.4407 20.0302 33.0234 20.0302Z" fill="black"/>
<path d="M41.3091 22.0677V9.08619L44.7767 7.57265L46.3502 9.1444V22.0677H41.3091ZM50.0801 22.0677V13.7723C50.0801 12.8797 49.9052 12.2006 49.5555 11.7349C49.2253 11.2692 48.7396 11.046 48.0986 11.0654C47.6712 11.0848 47.205 11.211 46.6999 11.4438C46.1948 11.6573 45.6897 11.9289 45.1846 12.2588C44.6795 12.5693 44.1939 12.8991 43.7276 13.2484L43.5528 12.4916C44.3687 11.6767 45.1943 10.949 46.0297 10.3087C46.865 9.64892 47.6809 9.1056 48.4774 8.6787C49.2933 8.2324 50.0509 7.89283 50.7503 7.65997C51.1194 7.65997 51.5467 7.72789 52.0324 7.86372C52.5375 7.98014 53.0329 8.19359 53.5185 8.50406C54.0236 8.79513 54.4413 9.21232 54.7715 9.75564C54.8686 9.91087 54.9366 10.1243 54.9755 10.396C55.0338 10.6676 55.0726 11.046 55.092 11.5311C55.1115 11.9968 55.1212 12.6372 55.1212 13.4522V22.0677H50.0801ZM39.1236 10.0467L38.9779 8.64959C39.8327 8.31972 40.7554 8.06746 41.7462 7.89283C42.7369 7.69878 43.7471 7.59206 44.7767 7.57265L44.7475 9.61011L42.5329 10.687L39.1236 10.0467ZM39.211 22.0677L39.1527 21.049C39.6967 20.7191 40.2892 20.4377 40.9303 20.2049C41.5908 19.972 42.193 19.7877 42.7369 19.6518L42.4746 22.0677H39.211ZM43.7276 22.0677L44.4561 19.0697C45.0583 19.2249 45.6703 19.4384 46.2919 19.7101C46.9136 19.9623 47.4866 20.2728 48.0112 20.6415L47.9529 22.0677H43.7276ZM52.4986 22.0677L53.2271 19.0697C53.8488 19.2249 54.5287 19.4384 55.2669 19.7101C56.0245 19.9623 56.6753 20.2728 57.2192 20.6415L57.1318 22.0677H52.4986Z" fill="black"/>
<path d="M64.6152 22.417C63.4302 22.5916 62.3035 22.5431 61.235 22.2714C60.1666 21.9998 59.2147 21.5535 58.3793 20.9325C57.5634 20.2922 56.9224 19.4966 56.4561 18.5458C55.9899 17.5756 55.7568 16.4792 55.7568 15.2568C55.7568 14.1119 55.9511 13.0738 56.3396 12.1424C56.7475 11.1916 57.3012 10.3766 58.0005 9.69743C58.6999 8.99887 59.4964 8.46525 60.39 8.09657C61.2836 7.70848 62.216 7.51444 63.1874 7.51444C63.9256 7.51444 64.6638 7.63087 65.402 7.86372C66.1596 8.09657 66.8492 8.45555 67.4709 8.94066C68.1119 9.42577 68.617 10.0661 68.9861 10.8617C69.3746 11.6573 69.5592 12.6081 69.5398 13.7141L64.994 14.1216C65.0911 13.4813 65.0426 12.8409 64.8483 12.2006C64.654 11.5602 64.3432 11.0363 63.9158 10.6288C63.4885 10.2019 62.9834 9.96909 62.4006 9.93028C61.9538 10.2213 61.5847 10.6288 61.2933 11.1528C61.0213 11.6767 60.8173 12.2491 60.6814 12.87C60.5454 13.491 60.4774 14.0828 60.4774 14.6455C60.4774 15.6546 60.6619 16.4986 61.031 17.1778C61.4001 17.8569 61.9052 18.3809 62.5463 18.7495C63.2068 19.0988 63.945 19.2735 64.7609 19.2735C65.3825 19.2735 65.9847 19.1764 66.5675 18.9824C67.1503 18.7883 67.7817 18.5167 68.4616 18.1674L69.1901 19.8265L64.6152 22.417ZM67.8497 15.4023L59.137 15.3441L58.7873 13.2484L67.1212 12.7245L69.5398 13.7141L67.8497 15.4023Z" fill="black"/>
<path d="M72.2789 28.7622L69.6563 24.1925C70.8025 23.8432 71.9195 23.4551 73.0074 23.0282C74.0952 22.6207 75.1442 22.1453 76.1544 21.602C75.6688 21.4855 75.1928 21.3594 74.7266 21.2236C74.2603 21.0684 73.7844 20.9228 73.2987 20.787L68.9861 8.94066L74.0855 8.12568L76.0961 15.1986L76.3293 17.5271H76.8246C77.0772 16.5374 77.32 15.5187 77.5531 14.4709C77.8057 13.4037 78.0388 12.3364 78.2525 11.2692C78.4661 10.1825 78.6507 9.1347 78.8061 8.12568H84.0221C83.6918 9.32874 83.3422 10.59 82.9731 11.9095C82.604 13.2096 82.2154 14.5194 81.8075 15.8389C81.4189 17.1584 80.9916 18.4294 80.5253 19.6518C80.0203 20.9131 79.4083 22.0774 78.6895 23.1446C77.9708 24.2313 77.0966 25.2306 76.067 26.1426C75.0374 27.0546 73.7747 27.9278 72.2789 28.7622ZM72.7742 12.6081L67.5 9.72653L67.5291 8.12568H74.0564L72.7742 12.6081ZM82.6525 10.6288L80.1465 8.12568H84.7797L84.838 9.55189C84.5466 9.76534 84.2066 9.95939 83.8181 10.134C83.4296 10.3087 83.041 10.4736 82.6525 10.6288Z" fill="black"/>
<path d="M94.4381 22.6207C92.748 22.6207 91.2133 22.2908 89.834 21.6311C88.4742 20.9519 87.396 19.9235 86.5996 18.5458C85.8031 17.1681 85.4048 15.4217 85.4048 13.3066V2.79919H90.6791V14.4709C90.6791 15.6934 90.8636 16.6927 91.2327 17.4689C91.6018 18.245 92.1069 18.8175 92.748 19.1861C93.4085 19.5548 94.1467 19.7392 94.9626 19.7392C95.4677 19.7392 95.9145 19.6809 96.303 19.5645C96.711 19.4287 97.0703 19.2444 97.3812 19.0115C97.7891 18.5458 98.0999 17.8569 98.3136 16.9449C98.5273 16.0329 98.6342 14.9269 98.6342 13.6268V2.79919H102.277V13.6268C102.277 15.315 102.073 16.7412 101.665 17.9055C101.257 19.0697 100.693 20.0011 99.9746 20.6997C99.2752 21.3788 98.4496 21.8639 97.4977 22.155C96.5458 22.4655 95.5259 22.6207 94.4381 22.6207ZM87.1823 4.98218L83.1611 4.34184L83.1902 2.79919H87.2698L87.1823 4.98218ZM90.2711 5.27324L90.242 2.79919H92.9811L93.1559 3.7306C92.748 4.00226 92.3012 4.26422 91.8155 4.51647C91.3299 4.76873 90.8151 5.02099 90.2711 5.27324ZM100.266 4.98218L96.2447 4.34184L96.2739 2.79919H100.353L100.266 4.98218ZM101.869 5.27324L101.839 2.79919H104.579L104.753 3.7306C104.345 4.00226 103.899 4.26422 103.413 4.51647C102.927 4.76873 102.413 5.02099 101.869 5.27324Z" fill="black"/>
<path d="M110.352 15.2859L110.439 12.1424C110.769 12.2588 111.1 12.3461 111.43 12.4043C111.76 12.4625 112.071 12.5111 112.362 12.5499C112.654 12.5693 112.906 12.579 113.12 12.579C113.878 12.579 114.489 12.414 114.956 12.0842C115.422 11.7349 115.762 11.2886 115.976 10.7453C116.209 10.1825 116.325 9.5907 116.325 8.96977C116.325 8.48466 116.267 7.98985 116.15 7.48533C116.034 6.96142 115.859 6.48601 115.626 6.05912C115.412 5.63222 115.131 5.31205 114.781 5.0986L110.876 5.56431L103.766 2.79919L113.819 2.56634C115.548 2.54694 116.995 2.8477 118.161 3.46864C119.327 4.08958 120.201 4.89486 120.784 5.88448C121.386 6.8741 121.687 7.93163 121.687 9.05708C121.687 10.2019 121.366 11.2498 120.725 12.2006C120.084 13.132 119.2 13.8694 118.074 14.4127C116.947 14.956 115.616 15.2374 114.081 15.2568L110.352 15.2859ZM103.795 22.0677L103.62 21.1363C104.048 20.8258 104.504 20.5444 104.99 20.2922C105.476 20.0399 105.981 19.8071 106.505 19.5936L106.534 22.0677H103.795ZM110.643 22.0677L110.73 19.8847L114.752 20.525L114.723 22.0677H110.643ZM105.922 22.0677V2.79919H111.197V22.0677H105.922ZM107.292 4.86575L103.737 4.34184L103.766 2.79919H107.321L107.292 4.86575Z" fill="black"/>
<path d="M128 2.66336C128 4.00295 126.913 5.0889 125.572 5.0889C124.231 5.0889 123.143 4.00295 123.143 2.66336C123.143 1.32377 124.231 0.237823 125.572 0.237823C126.913 0.237823 128 1.32377 128 2.66336Z" fill="black"/>
</svg>
