<svg width="63" height="29" viewBox="0 0 63 29" fill="none" xmlns="http://www.w3.org/2000/svg">
<path d="M62.5243 3.23758C62.5243 4.74951 61.2917 5.97517 59.7714 5.97517C58.251 5.97517 57.0184 4.74951 57.0184 3.23758C57.0184 1.72566 58.251 0.5 59.7714 0.5C61.2917 0.5 62.5243 1.72566 62.5243 3.23758Z" fill="black"/>
<path d="M0.19821 27.8758L0 26.8246C0.484514 26.4742 1.00206 26.1566 1.55265 25.8719C2.10323 25.5872 2.67584 25.3244 3.27047 25.0835L3.3035 27.8758H0.19821ZM5.21953 27.8758L5.31864 25.2149L9.87747 26.3318L9.84444 27.8758H5.21953ZM19.4576 27.8758L19.2594 26.8246C19.7439 26.4742 20.2615 26.1566 20.8121 25.8719C21.3626 25.5872 21.9353 25.3244 22.5299 25.0835L22.5629 27.8758H19.4576ZM26.1637 27.8758L26.2628 25.2149L30.8217 26.3318L30.7886 27.8758H26.1637ZM2.84101 27.8758L3.36957 6.52268H10.34L6.5079 10.1363L7.1686 17.922L7.03646 27.8758H2.84101ZM12.4542 28.1058L5.15346 8.00098L10.3069 6.52268L16.5505 23.9337L16.6827 27.3502L12.4542 28.1058ZM16.6827 27.3502L14.0729 26.6932L21.6379 6.52268L24.1486 7.73817L16.6827 27.3502ZM22.1004 27.8758L22.0013 17.922L22.629 9.97204L21.6379 6.52268H27.4851L27.8155 27.8758H22.1004ZM5.08739 9.18361L0.52856 8.06668L0.561595 6.52268H5.1865L5.08739 9.18361ZM27.0887 9.31502L27.0557 6.52268H30.161L30.3592 7.57391C29.8967 7.88052 29.3902 8.17618 28.8396 8.46089C28.289 8.7456 27.7054 9.03031 27.0887 9.31502Z" fill="black"/>
<path d="M42.0177 28.5C40.1017 28.5 38.3618 28.1277 36.7982 27.3831C35.2565 26.6165 34.0342 25.4558 33.1313 23.9009C32.2283 22.3459 31.7768 20.3749 31.7768 17.9877V6.12847H37.7562V19.3017C37.7562 20.6815 37.9654 21.8093 38.3838 22.6854C38.8023 23.5614 39.3749 24.2075 40.1017 24.6236C40.8505 25.0397 41.6873 25.2478 42.6123 25.2478C43.1849 25.2478 43.6915 25.1821 44.1319 25.0506C44.5944 24.8973 45.0019 24.6893 45.3542 24.4265C45.8167 23.9009 46.1691 23.1234 46.4114 22.0941C46.6536 21.0647 46.7747 19.8164 46.7747 18.349V6.12847H50.9041V18.349C50.9041 20.2544 50.6729 21.8641 50.2104 23.1781C49.7479 24.4922 49.1092 25.5434 48.2944 26.3318C47.5015 27.0984 46.5655 27.6459 45.4864 27.9744C44.4072 28.3248 43.251 28.5 42.0177 28.5ZM33.792 8.5923L29.2331 7.86957L29.2662 6.12847H33.8911L33.792 8.5923ZM37.2937 8.92081L37.2607 6.12847H40.3659L40.5642 7.1797C40.1017 7.48631 39.5951 7.78197 39.0446 8.06668C38.494 8.35139 37.9103 8.6361 37.2937 8.92081ZM48.6247 8.5923L44.0659 7.86957L44.0989 6.12847H48.7238L48.6247 8.5923ZM50.4416 8.92081L50.4086 6.12847H53.5139L53.7121 7.1797C53.2496 7.48631 52.7431 7.78197 52.1925 8.06668C51.6419 8.35139 51.0583 8.6361 50.4416 8.92081Z" fill="black"/>
</svg>
